<svg xmlns="http://www.w3.org/2000/svg" width="15" height="11.235" viewBox="0 0 15 11.235">
  <path id="Path_96" data-name="Path 96" d="M1853,27.147a.5.5,0,0,1-.5-.5V23a.5.5,0,0,1,.5-.5h2.71a.5.5,0,0,1,.5.5v3.647a.5.5,0,0,1-.5.5Zm0,6.588a.5.5,0,0,1-.5-.5V29.588a.5.5,0,0,1,.5-.5h2.71a.5.5,0,0,1,.5.5v3.647a.5.5,0,0,1-.5.5Zm5.65,0a.5.5,0,0,1-.5-.5V29.588a.5.5,0,0,1,.5-.5h2.7a.5.5,0,0,1,.5.5v3.647a.5.5,0,0,1-.5.5Zm5.64,0a.5.5,0,0,1-.5-.5V29.588a.5.5,0,0,1,.5-.5H1867a.5.5,0,0,1,.5.5v3.647a.5.5,0,0,1-.5.5Zm-5.64-6.588a.5.5,0,0,1-.5-.5V23a.5.5,0,0,1,.5-.5h2.7a.5.5,0,0,1,.5.5v3.647a.5.5,0,0,1-.5.5ZM1863.79,23a.5.5,0,0,1,.5-.5H1867a.5.5,0,0,1,.5.5v3.647a.5.5,0,0,1-.5.5h-2.71a.5.5,0,0,1-.5-.5Z" transform="translate(-1852.5 -22.5)" fill="#ef5d14"/>
</svg>
