<svg xmlns="http://www.w3.org/2000/svg" width="161.803" height="36.431" viewBox="0 0 161.803 36.431">
  <g id="Group_9706" data-name="Group 9706" transform="translate(0 0)">
    <g id="Group_9704" data-name="Group 9704" transform="translate(0.045 0)">
      <path id="Path_3929" data-name="Path 3929" d="M573.381-327.406l-2.818,4.81h-4.34l5.033-7.986-5.145-7.717h4.452l3.154,4.742,2.774-4.742h4.339l-4.988,7.918,5.189,7.784H576.58Z" transform="translate(-566.111 339.149)"/>
      <path id="Path_3930" data-name="Path 3930" d="M608.817-331.406a5.718,5.718,0,0,1,5.995,4.7h-4.071a1.971,1.971,0,0,0-1.991-1.432c-1.364,0-2.3,1.074-2.3,3.154s.94,3.154,2.3,3.154a1.941,1.941,0,0,0,1.991-1.432h4.071a5.8,5.8,0,0,1-5.995,4.7c-3.668,0-6.263-2.461-6.263-6.42C602.554-328.923,605.149-331.406,608.817-331.406Z" transform="translate(-586.472 335.298)"/>
      <path id="Path_3931" data-name="Path 3931" d="M634.941-340.226h3.825v5.749a4.6,4.6,0,0,1,3.848-1.812c2.841,0,4.742,1.968,4.742,5.324v7.292h-3.8v-6.778a2.319,2.319,0,0,0-2.393-2.64,2.319,2.319,0,0,0-2.394,2.64v6.778h-3.825Z" transform="translate(-604.567 340.226)"/>
      <path id="Path_3932" data-name="Path 3932" d="M672.883-331.406a4.345,4.345,0,0,1,3.847,1.946v-1.767h3.825v12.482H676.73v-1.767a4.413,4.413,0,0,1-3.87,1.946c-3.042,0-5.48-2.505-5.48-6.442S669.818-331.406,672.883-331.406ZM674-328.073a2.779,2.779,0,0,0-2.729,3.065A2.819,2.819,0,0,0,674-321.9a2.787,2.787,0,0,0,2.729-3.087A2.787,2.787,0,0,0,674-328.073Z" transform="translate(-622.691 335.298)"/>
      <path id="Path_3933" data-name="Path 3933" d="M712.129-325.466a2.319,2.319,0,0,0-2.394-2.64,2.319,2.319,0,0,0-2.394,2.64v6.778h-3.825V-331.17h3.825v1.655a4.578,4.578,0,0,1,3.781-1.789c2.886,0,4.809,1.968,4.809,5.324v7.292h-3.8Z" transform="translate(-642.882 335.241)"/>
      <path id="Path_3934" data-name="Path 3934" d="M741.458-331.406a4.324,4.324,0,0,1,3.848,1.946v-1.767h3.825v12.459c0,3.333-1.924,6.174-6.241,6.174-3.713,0-6.129-1.879-6.464-4.854h3.78a2.354,2.354,0,0,0,2.506,1.543c1.454,0,2.595-.76,2.595-2.863v-1.767a4.415,4.415,0,0,1-3.848,1.969c-3.065,0-5.5-2.505-5.5-6.442S738.394-331.406,741.458-331.406Zm1.118,3.333a2.779,2.779,0,0,0-2.729,3.065,2.819,2.819,0,0,0,2.729,3.109,2.787,2.787,0,0,0,2.729-3.087A2.787,2.787,0,0,0,742.577-328.073Z" transform="translate(-661.006 335.298)"/>
      <path id="Path_3935" data-name="Path 3935" d="M776.678-318.566a6.017,6.017,0,0,1-6.308-6.42c0-3.959,2.595-6.42,6.308-6.42a5.882,5.882,0,0,1,6.219,6.219,9.7,9.7,0,0,1-.067,1.119h-8.657a2.314,2.314,0,0,0,2.371,2.394,2.033,2.033,0,0,0,1.991-1.208h4.071A5.834,5.834,0,0,1,776.678-318.566Zm-2.483-7.628h4.787a2.158,2.158,0,0,0-2.349-2.147A2.365,2.365,0,0,0,774.2-326.194Z" transform="translate(-680.233 335.298)"/>
      <path id="Path_3936" data-name="Path 3936" d="M809.735-338.3c3.848,0,5.771,2.214,5.771,4.943a4.57,4.57,0,0,1-3.49,4.541l3.624,6.219h-4.317l-3.266-5.928h-.917v5.928h-3.825v-15.7Zm-.224,3.176H807.14v3.892h2.371c1.432,0,2.1-.738,2.1-1.968C811.614-334.362,810.943-335.123,809.511-335.123Z" transform="translate(-698.64 339.149)"/>
      <path id="Path_3937" data-name="Path 3937" d="M840.14-331.406a4.346,4.346,0,0,1,3.848,1.946v-1.767h3.825v12.482h-3.825v-1.767a4.413,4.413,0,0,1-3.87,1.946c-3.042,0-5.48-2.505-5.48-6.442S837.076-331.406,840.14-331.406Zm1.119,3.333a2.779,2.779,0,0,0-2.729,3.065,2.819,2.819,0,0,0,2.729,3.109,2.787,2.787,0,0,0,2.729-3.087A2.787,2.787,0,0,0,841.259-328.073Z" transform="translate(-716.141 335.298)"/>
      <path id="Path_3938" data-name="Path 3938" d="M870.219-331.675H868.7v-3.176h1.522v-3.042h3.825v3.042h2.505v3.176h-2.505v5.01c0,.738.313,1.052,1.163,1.052h1.365v3.243h-1.946c-2.595,0-4.406-1.1-4.406-4.34Z" transform="translate(-735.17 338.923)"/>
      <path id="Path_3939" data-name="Path 3939" d="M895.937-318.566a6.017,6.017,0,0,1-6.308-6.42c0-3.959,2.6-6.42,6.308-6.42a5.882,5.882,0,0,1,6.219,6.219,9.62,9.62,0,0,1-.068,1.119h-8.657a2.315,2.315,0,0,0,2.371,2.394,2.034,2.034,0,0,0,1.991-1.208h4.071A5.833,5.833,0,0,1,895.937-318.566Zm-2.483-7.628h4.787a2.158,2.158,0,0,0-2.349-2.147A2.365,2.365,0,0,0,893.454-326.194Z" transform="translate(-746.865 335.298)"/>
      <path id="Path_3940" data-name="Path 3940" d="M923.742-307.578a2.113,2.113,0,0,1-2.282-2.058,2.12,2.12,0,0,1,2.282-2.1,2.113,2.113,0,0,1,2.259,2.1A2.105,2.105,0,0,1,923.742-307.578Z" transform="translate(-764.649 324.309)"/>
    </g>
    <g id="Group_9705" data-name="Group 9705" transform="translate(0 26.215)">
      <path id="Path_3941" data-name="Path 3941" d="M566.008-278.69h1.623v6.665h-1.623Z" transform="translate(-566.008 279.63)"/>
      <path id="Path_3942" data-name="Path 3942" d="M576.008-273.243a.984.984,0,0,0-1.016-1.12.984.984,0,0,0-1.016,1.12v2.877h-1.624v-5.3h1.624v.7a1.943,1.943,0,0,1,1.6-.759,2,2,0,0,1,2.041,2.259v3.1h-1.614Z" transform="translate(-569.553 277.971)"/>
      <path id="Path_3943" data-name="Path 3943" d="M586.614-275.879h-.646v-1.348h.646v-1.291h1.623v1.291H589.3v1.348h-1.063v2.127c0,.313.133.446.494.446h.579v1.377h-.826a1.636,1.636,0,0,1-1.87-1.842Z" transform="translate(-577.16 279.534)"/>
      <path id="Path_3944" data-name="Path 3944" d="M597.528-270.315a2.554,2.554,0,0,1-2.677-2.724,2.544,2.544,0,0,1,2.677-2.725,2.5,2.5,0,0,1,2.639,2.639,4.081,4.081,0,0,1-.028.474h-3.675a.983.983,0,0,0,1.007,1.016.864.864,0,0,0,.845-.513h1.728A2.476,2.476,0,0,1,597.528-270.315Zm-1.054-3.237h2.032a.916.916,0,0,0-1-.912A1,1,0,0,0,596.474-273.552Z" transform="translate(-582.123 277.995)"/>
      <path id="Path_3945" data-name="Path 3945" d="M608.832-279.508h1.624v7.026h-1.624Z" transform="translate(-589.934 280.087)"/>
      <path id="Path_3946" data-name="Path 3946" d="M615.177-279.508H616.8v7.026h-1.624Z" transform="translate(-593.479 280.087)"/>
      <path id="Path_3947" data-name="Path 3947" d="M621.178-279.937a.9.9,0,0,1,.968-.883.9.9,0,0,1,.959.883.894.894,0,0,1-.959.873A.9.9,0,0,1,621.178-279.937Zm.152,1.424h1.623v5.3H621.33Z" transform="translate(-596.832 280.82)"/>
      <path id="Path_3948" data-name="Path 3948" d="M629.471-275.764a1.837,1.837,0,0,1,1.633.826v-.75h1.623v5.288a2.442,2.442,0,0,1-2.649,2.62c-1.576,0-2.6-.8-2.744-2.06h1.6a1,1,0,0,0,1.063.655c.617,0,1.1-.323,1.1-1.215v-.75a1.875,1.875,0,0,1-1.633.835,2.455,2.455,0,0,1-2.335-2.734A2.438,2.438,0,0,1,629.471-275.764Zm.475,1.414a1.18,1.18,0,0,0-1.158,1.3,1.2,1.2,0,0,0,1.158,1.319,1.183,1.183,0,0,0,1.158-1.31A1.183,1.183,0,0,0,629.946-274.35Z" transform="translate(-600.161 277.995)"/>
      <path id="Path_3949" data-name="Path 3949" d="M644.417-270.315a2.554,2.554,0,0,1-2.677-2.724,2.544,2.544,0,0,1,2.677-2.725,2.5,2.5,0,0,1,2.64,2.639,4.111,4.111,0,0,1-.029.474h-3.675a.983.983,0,0,0,1.007,1.016.864.864,0,0,0,.845-.513h1.728A2.476,2.476,0,0,1,644.417-270.315Zm-1.054-3.237H645.4a.916.916,0,0,0-1-.912A1,1,0,0,0,643.364-273.552Z" transform="translate(-608.32 277.995)"/>
      <path id="Path_3950" data-name="Path 3950" d="M659.376-273.243a.984.984,0,0,0-1.016-1.12.984.984,0,0,0-1.016,1.12v2.877h-1.623v-5.3h1.623v.7a1.943,1.943,0,0,1,1.6-.759,2,2,0,0,1,2.041,2.259v3.1h-1.614Z" transform="translate(-616.132 277.971)"/>
      <path id="Path_3951" data-name="Path 3951" d="M672.145-275.764a2.427,2.427,0,0,1,2.544,1.994h-1.728a.837.837,0,0,0-.845-.608c-.579,0-.978.456-.978,1.339s.4,1.338.978,1.338a.824.824,0,0,0,.845-.608h1.728a2.46,2.46,0,0,1-2.544,1.994,2.539,2.539,0,0,1-2.658-2.724A2.544,2.544,0,0,1,672.145-275.764Z" transform="translate(-623.823 277.995)"/>
      <path id="Path_3952" data-name="Path 3952" d="M685.177-270.315a2.553,2.553,0,0,1-2.677-2.724,2.544,2.544,0,0,1,2.677-2.725,2.5,2.5,0,0,1,2.64,2.639,4.084,4.084,0,0,1-.029.474h-3.674a.982.982,0,0,0,1.006,1.016.864.864,0,0,0,.845-.513h1.728A2.476,2.476,0,0,1,685.177-270.315Zm-1.054-3.237h2.032a.916.916,0,0,0-1-.912A1,1,0,0,0,684.123-273.552Z" transform="translate(-631.094 277.995)"/>
      <path id="Path_3953" data-name="Path 3953" d="M700.661-276.958h-.589v-1.348h.589v-.152c0-1.386.854-2.07,2.469-1.984v1.377c-.627-.038-.845.152-.845.712v.048h.873v1.348h-.873v3.949h-1.623Z" transform="translate(-640.911 280.613)"/>
      <path id="Path_3954" data-name="Path 3954" d="M710.786-270.315a2.6,2.6,0,0,1-2.734-2.724,2.619,2.619,0,0,1,2.753-2.725,2.614,2.614,0,0,1,2.753,2.725A2.628,2.628,0,0,1,710.786-270.315Zm0-1.405a1.16,1.16,0,0,0,1.12-1.319c0-.9-.532-1.32-1.1-1.32-.589,0-1.1.418-1.1,1.32S710.2-271.72,710.786-271.72Z" transform="translate(-645.37 277.995)"/>
      <path id="Path_3955" data-name="Path 3955" d="M724.108-270.366h-1.624v-5.3h1.624v.883a1.974,1.974,0,0,1,1.661-.94V-274h-.447c-.769,0-1.215.266-1.215,1.177Z" transform="translate(-653.433 277.971)"/>
      <path id="Path_3956" data-name="Path 3956" d="M738.88-274.418h-1.006v2.393H736.25v-6.665h2.63c1.633,0,2.45.921,2.45,2.146A2.147,2.147,0,0,1,738.88-274.418Zm-.124-1.291c.646,0,.921-.323.921-.835s-.275-.835-.921-.835h-.883v1.671Z" transform="translate(-661.124 279.63)"/>
      <path id="Path_3957" data-name="Path 3957" d="M751.3-270.366h-1.624v-5.3H751.3v.883a1.973,1.973,0,0,1,1.661-.94V-274h-.446c-.769,0-1.215.266-1.215,1.177Z" transform="translate(-668.623 277.971)"/>
      <path id="Path_3958" data-name="Path 3958" d="M760.88-270.315a2.6,2.6,0,0,1-2.734-2.724,2.619,2.619,0,0,1,2.753-2.725,2.614,2.614,0,0,1,2.753,2.725A2.628,2.628,0,0,1,760.88-270.315Zm0-1.405a1.16,1.16,0,0,0,1.12-1.319c0-.9-.531-1.32-1.1-1.32-.589,0-1.1.418-1.1,1.32S760.292-271.72,760.88-271.72Z" transform="translate(-673.358 277.995)"/>
      <path id="Path_3959" data-name="Path 3959" d="M772.2-276.958h-.589v-1.348h.589v-.152c0-1.386.854-2.07,2.469-1.984v1.377c-.627-.038-.845.152-.845.712v.048h.873v1.348h-.873v3.949H772.2Z" transform="translate(-680.88 280.613)"/>
      <path id="Path_3960" data-name="Path 3960" d="M779.977-279.937a.9.9,0,0,1,.968-.883.9.9,0,0,1,.959.883.894.894,0,0,1-.959.873A.9.9,0,0,1,779.977-279.937Zm.152,1.424h1.623v5.3h-1.623Z" transform="translate(-685.555 280.82)"/>
      <path id="Path_3961" data-name="Path 3961" d="M786.43-275.879h-.646v-1.348h.646v-1.291h1.623v1.291h1.063v1.348h-1.063v2.127c0,.313.133.446.494.446h.579v1.377H788.3a1.636,1.636,0,0,1-1.87-1.842Z" transform="translate(-688.8 279.534)"/>
      <path id="Path_3962" data-name="Path 3962" d="M797-275.764a1.844,1.844,0,0,1,1.633.826v-.75h1.624v5.3h-1.624v-.75a1.872,1.872,0,0,1-1.642.826,2.454,2.454,0,0,1-2.326-2.734A2.438,2.438,0,0,1,797-275.764Zm.475,1.414a1.179,1.179,0,0,0-1.158,1.3,1.2,1.2,0,0,0,1.158,1.319,1.183,1.183,0,0,0,1.158-1.31A1.183,1.183,0,0,0,797.477-274.35Z" transform="translate(-693.763 277.995)"/>
      <path id="Path_3963" data-name="Path 3963" d="M813.259-277.856a2.433,2.433,0,0,1,2.336,2.715,2.456,2.456,0,0,1-2.336,2.734,1.862,1.862,0,0,1-1.633-.816v.74H810v-7.026h1.623v2.478A1.87,1.87,0,0,1,813.259-277.856Zm-.484,1.414a1.188,1.188,0,0,0-1.158,1.311,1.188,1.188,0,0,0,1.158,1.31,1.2,1.2,0,0,0,1.168-1.319A1.181,1.181,0,0,0,812.775-276.441Z" transform="translate(-702.331 280.087)"/>
      <path id="Path_3964" data-name="Path 3964" d="M824.607-279.508h1.624v7.026h-1.624Z" transform="translate(-710.491 280.087)"/>
      <path id="Path_3965" data-name="Path 3965" d="M832.9-270.315a2.554,2.554,0,0,1-2.677-2.724,2.544,2.544,0,0,1,2.677-2.725,2.5,2.5,0,0,1,2.639,2.639,4.108,4.108,0,0,1-.028.474h-3.675a.983.983,0,0,0,1.007,1.016.864.864,0,0,0,.845-.513h1.728A2.476,2.476,0,0,1,832.9-270.315Zm-1.054-3.237h2.032a.916.916,0,0,0-1-.912A1,1,0,0,0,831.844-273.552Z" transform="translate(-713.627 277.995)"/>
      <path id="Path_3966" data-name="Path 3966" d="M847.944-278.69H853.1v1.3h-1.766v5.364H849.71v-5.364h-1.766Z" transform="translate(-723.529 279.63)"/>
      <path id="Path_3967" data-name="Path 3967" d="M863.1-270.366h-1.623v-5.3H863.1v.883a1.975,1.975,0,0,1,1.661-.94V-274h-.446c-.769,0-1.215.266-1.215,1.177Z" transform="translate(-731.088 277.971)"/>
      <path id="Path_3968" data-name="Path 3968" d="M872.283-275.764a1.844,1.844,0,0,1,1.633.826v-.75h1.624v5.3h-1.624v-.75a1.872,1.872,0,0,1-1.643.826,2.454,2.454,0,0,1-2.326-2.734A2.438,2.438,0,0,1,872.283-275.764Zm.474,1.414a1.179,1.179,0,0,0-1.158,1.3,1.2,1.2,0,0,0,1.158,1.319,1.183,1.183,0,0,0,1.158-1.31A1.183,1.183,0,0,0,872.757-274.35Z" transform="translate(-735.823 277.995)"/>
      <path id="Path_3969" data-name="Path 3969" d="M886.887-277.856a1.945,1.945,0,0,1,1.633.807v-2.459h1.623v7.026h-1.623v-.759a1.833,1.833,0,0,1-1.633.835,2.456,2.456,0,0,1-2.335-2.734A2.438,2.438,0,0,1,886.887-277.856Zm.475,1.414a1.18,1.18,0,0,0-1.158,1.3,1.2,1.2,0,0,0,1.158,1.319,1.183,1.183,0,0,0,1.158-1.31A1.183,1.183,0,0,0,887.362-276.441Z" transform="translate(-743.983 280.087)"/>
      <path id="Path_3970" data-name="Path 3970" d="M899.543-279.937a.9.9,0,0,1,.969-.883.9.9,0,0,1,.959.883.894.894,0,0,1-.959.873A.9.9,0,0,1,899.543-279.937Zm.152,1.424h1.624v5.3H899.7Z" transform="translate(-752.358 280.82)"/>
      <path id="Path_3971" data-name="Path 3971" d="M909.888-273.243a.985.985,0,0,0-1.016-1.12.984.984,0,0,0-1.015,1.12v2.877h-1.624v-5.3h1.624v.7a1.942,1.942,0,0,1,1.6-.759,2,2,0,0,1,2.041,2.259v3.1h-1.614Z" transform="translate(-756.096 277.971)"/>
      <path id="Path_3972" data-name="Path 3972" d="M922.334-275.764a1.835,1.835,0,0,1,1.633.826v-.75h1.624v5.288a2.442,2.442,0,0,1-2.649,2.62c-1.576,0-2.6-.8-2.743-2.06h1.6a1,1,0,0,0,1.063.655c.617,0,1.1-.323,1.1-1.215v-.75a1.874,1.874,0,0,1-1.633.835A2.456,2.456,0,0,1,920-273.049,2.438,2.438,0,0,1,922.334-275.764Zm.474,1.414a1.179,1.179,0,0,0-1.158,1.3,1.2,1.2,0,0,0,1.158,1.319,1.183,1.183,0,0,0,1.158-1.31A1.183,1.183,0,0,0,922.808-274.35Z" transform="translate(-763.787 277.995)"/>
    </g>
  </g>
</svg>
